HIERARCHY
ROOT hip
{
  OFFSET 0 0 0
  CHANNELS 6 Xposition Yposition Zposition Zrotation Yrotation Xrotation
  JOINT abdomen
  {
    OFFSET 0 20.6881 -0.73152
    CHANNELS 3 Zrotation Xrotation Yrotation
    JOINT chest
    {
      OFFSET 0 11.7043 -0.48768
      CHANNELS 3 Zrotation Xrotation Yrotation
      JOINT neck
      {
        OFFSET 0 22.1894 -2.19456
        CHANNELS 3 Zrotation Xrotation Yrotation
        JOINT head
        {
          OFFSET -0.24384 7.07133 1.2192
          CHANNELS 3 Zrotation Xrotation Yrotation
          JOINT leftEye
          {
            OFFSET 4.14528 8.04674 8.04672
            CHANNELS 3 Zrotation Xrotation Yrotation
            End Site
            {
              OFFSET 1 0 0
            }
          }
          JOINT rightEye
          {
            OFFSET -3.6576 8.04674 8.04672
            CHANNELS 3 Zrotation Xrotation Yrotation
            End Site
            {
              OFFSET 1 0 0
            }
          }
        }
      }
      JOINT rCollar
      {
        OFFSET -2.68224 19.2634 -4.8768
        CHANNELS 3 Zrotation Xrotation Yrotation
        JOINT rShldr
        {
          OFFSET -8.77824 -1.95073 1.46304
          CHANNELS 3 Zrotation Xrotation Yrotation
          JOINT rForeArm
          {
            OFFSET -28.1742 -1.7115 0.48768
            CHANNELS 3 Zrotation Xrotation Yrotation
            JOINT rHand
            {
              OFFSET -22.5879 0.773209 7.07136
              CHANNELS 3 Zrotation Xrotation Yrotation
              JOINT rThumb1
              {
                OFFSET -1.2192 -0.487915 3.41376
                CHANNELS 3 Zrotation Xrotation Yrotation
                JOINT rThumb2
                {
                  OFFSET -3.37035 -0.52449 3.41376
                  CHANNELS 3 Zrotation Xrotation Yrotation
                  End Site
                  {
                    OFFSET -1.78271 -1.18214 1.43049
                  }
                }
              }
              JOINT rIndex1
              {
                OFFSET -7.75947 0.938293 5.60832
                CHANNELS 3 Zrotation Xrotation Yrotation
                JOINT rIndex2
                {
                  OFFSET -2.54057 -0.884171 1.56538
                  CHANNELS 3 Zrotation Xrotation Yrotation
                  End Site
                  {
                    OFFSET -1.62519 -0.234802 1.16502
                  }
                }
              }
              JOINT rMid1
              {
                OFFSET -8.24714 1.18213 3.41376
                CHANNELS 3 Zrotation Xrotation Yrotation
                JOINT rMid2
                {
                  OFFSET -3.10165 -0.590103 1.0647
                  CHANNELS 3 Zrotation Xrotation Yrotation
                  End Site
                  {
                    OFFSET -2.48547 -0.328903 0.83742
                  }
                }
              }
              JOINT rRing1
              {
                OFFSET -8.82822 0.546677 1.51678
                CHANNELS 3 Zrotation Xrotation Yrotation
                JOINT rRing2
                {
                  OFFSET -2.60934 -0.819778 -0.0198488
                  CHANNELS 3 Zrotation Xrotation Yrotation
                  End Site
                  {
                    OFFSET -2.33842 -0.294052 0.168128
                  }
                }
              }
              JOINT rPinky1
              {
                OFFSET -8.27202 -0.0477905 -0.4584
                CHANNELS 3 Zrotation Xrotation Yrotation
                JOINT rPinky2
                {
                  OFFSET -1.82734 -0.647385 -0.700984
                  CHANNELS 3 Zrotation Xrotation Yrotation
                  End Site
                  {
                    OFFSET -1.69225 -0.51767 -0.607171
                  }
                }
              }
            }
          }
        }
      }
      JOINT lCollar
      {
        OFFSET 2.68224 19.2634 -4.8768
        CHANNELS 3 Zrotation Xrotation Yrotation
        JOINT lShldr
        {
          OFFSET 8.77824 -1.95073 1.46304
          CHANNELS 3 Zrotation Xrotation Yrotation
          JOINT lForeArm
          {
            OFFSET 28.1742 -1.7115 0.48768
            CHANNELS 3 Zrotation Xrotation Yrotation
            JOINT lHand
            {
              OFFSET 22.5879 0.773209 7.07136
              CHANNELS 3 Zrotation Xrotation Yrotation
              JOINT lThumb1
              {
                OFFSET 1.2192 -0.487915 3.41376
                CHANNELS 3 Zrotation Xrotation Yrotation
                JOINT lThumb2
                {
                  OFFSET 3.37035 -0.52449 3.41376
                  CHANNELS 3 Zrotation Xrotation Yrotation
                  End Site
                  {
                    OFFSET 1.78271 -1.18214 1.43049
                  }
                }
              }
              JOINT lIndex1
              {
                OFFSET 7.75947 0.938293 5.60832
                CHANNELS 3 Zrotation Xrotation Yrotation
                JOINT lIndex2
                {
                  OFFSET 2.54057 -0.884171 1.56538
                  CHANNELS 3 Zrotation Xrotation Yrotation
                  End Site
                  {
                    OFFSET 1.62519 -0.234802 1.16502
                  }
                }
              }
              JOINT lMid1
              {
                OFFSET 8.24714 1.18213 3.41376
                CHANNELS 3 Zrotation Xrotation Yrotation
                JOINT lMid2
                {
                  OFFSET 3.10165 -0.590103 1.0647
                  CHANNELS 3 Zrotation Xrotation Yrotation
                  End Site
                  {
                    OFFSET 2.48547 -0.328903 0.83742
                  }
                }
              }
              JOINT lRing1
              {
                OFFSET 8.82822 0.546677 1.51678
                CHANNELS 3 Zrotation Xrotation Yrotation
                JOINT lRing2
                {
                  OFFSET 2.60934 -0.819778 -0.0198488
                  CHANNELS 3 Zrotation Xrotation Yrotation
                  End Site
                  {
                    OFFSET 2.33842 -0.294052 0.168128
                  }
                }
              }
              JOINT lPinky1
              {
                OFFSET 8.27202 -0.0477905 -0.4584
                CHANNELS 3 Zrotation Xrotation Yrotation
                JOINT lPinky2
                {
                  OFFSET 1.82734 -0.647385 -0.700984
                  CHANNELS 3 Zrotation Xrotation Yrotation
                  End Site
                  {
                    OFFSET 1.69225 -0.51767 -0.607171
                  }
                }
              }
            }
          }
        }
      }
    }
  }
  JOINT rButtock
  {
    OFFSET -8.77824 4.35084 1.2192
    CHANNELS 3 Zrotation Xrotation Yrotation
    JOINT rThigh
    {
      OFFSET 0 -1.70687 -2.19456
      CHANNELS 3 Zrotation Xrotation Yrotation
      JOINT rShin
      {
        OFFSET 0 -36.8199 0.73152
        CHANNELS 3 Zrotation Xrotation Yrotation
        JOINT rFoot
        {
          OFFSET 0.73152 -45.1104 -5.12064
          CHANNELS 3 Zrotation Xrotation Yrotation
          End Site
          {
            OFFSET -1.1221 -3.69964 12.103
          }
        }
      }
    }
  }
  JOINT lButtock
  {
    OFFSET 8.77824 4.35084 1.2192
    CHANNELS 3 Zrotation Xrotation Yrotation
    JOINT lThigh
    {
      OFFSET 0 -1.70687 -2.19456
      CHANNELS 3 Zrotation Xrotation Yrotation
      JOINT lShin
      {
        OFFSET 0 -36.8199 0.73152
        CHANNELS 3 Zrotation Xrotation Yrotation
        JOINT lFoot
        {
          OFFSET -0.73152 -45.1104 -5.12064
          CHANNELS 3 Zrotation Xrotation Yrotation
          End Site
          {
            OFFSET 1.1221 -3.69964 12.103
          }
        }
      }
    }
  }
}
MOTION
Frames:	8
Frame Time:	0.00833333
0.0 0.0 0.0 0.0 0.0 0.0 0.0 0.0 0.0 0.0 0.0 0.0 0.0 0.0 0.0 0.0 0.0 0.0 0.0 0.0 0.0 0.0 0.0 0.0 0.0 0.0 0.0 0.0 0.0 0.0 0.0 0.0 0.0 0.0 0.0 0.0 0.0 0.0 0.0 0.0 0.0 0.0 0.0 0.0 0.0 0.0 0.0 0.0 0.0 0.0 0.0 0.0 0.0 0.0 0.0 0.0 0.0 0.0 0.0 0.0 0.0 0.0 0.0 0.0 0.0 0.0 0.0 0.0 0.0 0.0 0.0 0.0 0.0 0.0 0.0 0.0 0.0 0.0 0.0 0.0 0.0 0.0 0.0 0.0 0.0 0.0 0.0 0.0 0.0 0.0 0.0 0.0 0.0 0.0 0.0 0.0 0.0 0.0 0.0 0.0 0.0 0.0 0.0 0.0 0.0 0.0 0.0 0.0 0.0 0.0 0.0 0.0 0.0 0.0 0.0 0.0 0.0 0.0 0.0 0.0 0.0 0.0 0.0 0.0 0.0 0.0 0.0 0.0 0.0 0.0 0.0 0.0
119.7 83.8315 -2.83278 -0.0 -0.0 -0.0 -0.0 0.0 -0.0 0.0 0.0 -0.0 -8.004821 8.256846 -69.161918 10.546126 4.563212 69.319265 0.0 0.0 0.0 0.0 0.0 0.0 0.163072 -0.990049 -0.218539 -2.118007 -63.273283 -5.344053 -154.314063 42.969921 146.938546 41.291623 -62.854807 28.550715 71.831195 -48.263725 25.791675 -14.787337 -29.714759 -26.196854 -138.493513 4.896353 114.8648 -151.557764 -10.238392 124.047007 -160.573436 -6.359341 143.198121 -145.059167 31.012446 134.435885 -74.840941 72.961123 92.827929 16.005535 55.502267 -12.664411 -80.939074 -51.227554 -79.359772 2.484305 -3.315546 0.447337 159.220516 -48.028485 -170.415257 -30.244758 -44.445512 -25.972225 88.505559 -76.153746 113.739975 -78.145864 -70.483434 -63.173682 -51.059793 -41.203951 -12.856726 113.245509 30.157186 -87.072265 19.170572 24.114561 -13.380841 166.056193 -1.368637 -114.622391 -37.459372 -72.537098 -11.712209 -175.920386 -48.194024 -136.776447 -0.004873 1.771387 -0.556475 166.455253 -12.141195 -173.573026 -3.243548 9.137447 -2.954514 87.086492 -53.580347 83.957268 -0.0 0.0 -0.0 -0.0 -0.0 -0.0 -2.721753 1.041334 -25.607042 80.981142 5.948809 -7.990811 -0.0 0.0 -0.0 -0.0 -0.0 -0.0 2.721753 1.041334 25.607042 -80.981142 5.948809 7.990811
119.68900000000001 83.8175 -3.07342 -0.0 -0.0 -0.0 -0.0 0.0 -0.0 0.0 0.0 -0.0 -8.133567 10.422116 -81.502261 11.496437 6.51512 81.58876 0.0 0.0 0.0 0.0 0.0 0.0 -80.1661 68.371792 83.260848 -155.928939 14.04033 178.185661 92.122419 -86.664066 54.022316 171.439932 -14.278721 144.159382 8.270536 -8.263169 -0.681995 -49.898448 31.387754 41.499806 -4.706866 7.223928 2.854949 0.656929 -1.839519 -1.786122 68.983989 -80.15399 40.578188 -163.873845 -5.289579 140.122074 -145.119721 0.310087 -179.225753 22.518438 44.241644 -4.012754 -149.198149 25.859061 -145.26249 3.306418 -2.67215 -3.398934 9.651699 34.836178 -11.199233 -7.702052 27.978734 2.26007 179.762653 83.789532 -148.496926 -170.304925 -17.510117 -143.736956 -172.492362 -24.217531 -87.653863 20.564661 -44.881585 6.902356 0.327682 0.529888 -0.186114 72.031289 47.589922 -46.310439 161.518715 -9.304265 -143.625478 160.732068 -6.772999 -143.083397 75.673382 -72.116249 92.828895 139.869325 39.921333 -156.753252 149.120208 25.572782 145.198809 144.448773 8.960862 140.497234 -0.0 0.0 -0.0 -0.0 -0.0 -0.0 -3.608266 1.750949 -35.499358 93.839643 12.598144 -12.971954 -0.0 0.0 -0.0 -0.0 -0.0 -0.0 3.608266 1.750949 35.499358 -93.839643 12.598144 12.971954
119.69000000000001 83.8099 -3.3092900000000003 -0.0 -0.0 -0.0 -0.0 0.0 -0.0 0.0 -0.0 -0.0 -8.144544 9.765136 -77.762661 11.253376 5.904095 77.877376 0.0 0.0 0.0 0.0 0.0 0.0 -155.417258 -2.951435 161.718542 -148.818679 16.450624 160.051301 4.609694 7.037854 0.690029 -4.895613 15.489208 0.13254 51.059793 -41.203951 12.856726 -7.974568 -30.700815 -26.847395 12.216524 -21.784719 -5.120188 -168.414943 -11.229946 105.891421 -169.050321 -33.130258 145.374545 -2.960994 21.193687 6.316186 -114.669357 66.731663 135.092548 -0.265219 -32.330311 -22.636728 -145.173549 12.06758 -141.82295 -23.582281 -40.591733 -27.381962 155.61387 -4.23638 -161.991154 139.161928 37.943582 -153.843345 -78.335704 -70.29938 -50.50303 163.406141 49.880483 -137.474237 5.433768 5.264911 -1.077842 5.226805 6.335882 -7.718486 -9.087734 -15.965515 4.197453 -4.462424 -2.779348 -2.475675 -7.904304 -24.807577 3.013399 161.772716 7.539687 -140.167998 145.119466 0.267775 179.212461 68.008116 -77.888585 99.869674 144.260424 9.237701 141.009589 -3.623665 -3.130181 2.791952 -180.0 75.749642 -0.0 -180.0 73.473292 -180.0 -3.818269 -2.872352 -145.985039 55.45762 -47.175368 -32.094048 -180.0 75.749642 -0.0 -180.0 73.473292 -180.0 3.818269 -2.872352 145.985039 -55.45762 -47.175368 32.094048
119.672 83.8031 -3.52411 -0.0 0.0 -0.0 -0.0 -4.771896 -180.0 -0.0 -4.771896 180.0 -7.906765 12.08614 -91.106352 11.93363 8.136982 91.092829 -0.0 0.0 -0.0 -0.0 0.0 -0.0 -155.417258 -2.951435 161.718542 -143.05501 30.576271 156.81166 11.038052 1.401758 -0.247874 -12.654152 36.067372 2.84816 -93.743665 37.963835 53.548561 92.024215 -50.846316 40.49437 60.461659 -70.523647 15.71111 22.244093 -6.780373 3.458254 -82.840589 61.110826 74.532293 -87.821042 67.040582 79.767339 -145.121954 1.975391 -179.748922 -146.741552 64.572052 173.005325 -25.537984 -38.087442 -24.598474 -8.887972 -24.278489 -8.517769 9.651699 34.836178 -11.199233 -7.278038 13.947223 2.964108 -164.323472 -9.095471 -154.814783 156.720692 57.439513 -132.35414 121.36458 30.329582 -71.957921 167.088226 -25.862185 -77.128788 2.68634 4.226753 -1.583637 -78.009979 -60.859423 -38.079358 -68.983989 -80.15399 -40.578188 -88.078872 -75.128048 -59.73913 145.099676 -1.522981 178.649575 -22.020186 22.860702 6.070276 -0.098846 0.258289 -0.091255 -0.891057 2.5522 -0.7466 -0.0 0.0 -0.0 0.0 -0.0 -0.0 -5.55356 5.37342 -71.84797 157.456697 -24.28981 -68.649266 -0.0 0.0 -0.0 0.0 -0.0 -0.0 5.652928 6.376906 80.640419 -9.961761 13.836664 -77.273686
119.648 83.7838 -3.93465 -0.0 0.0 -0.0 -0.0 -4.771896 -180.0 -0.0 -4.771896 180.0 -8.133567 10.422116 -81.502261 11.496437 6.51512 81.58876 0.0 -0.0 -0.0 0.0 -0.0 -0.0 0.163072 -0.990049 -0.218539 -10.55683 -80.201182 -14.492998 20.772025 1.227083 -8.937598 -62.949419 72.425336 45.029423 -169.319662 -7.000857 89.921973 -90.840819 9.476912 35.298672 -152.105085 -18.556554 121.367907 -156.351489 -27.9866 120.062843 -160.937898 -7.488186 143.367502 -167.214542 -26.252705 143.903163 -145.119466 0.267753 -179.212454 17.172042 -26.764106 -13.302657 7.795329 24.328344 6.893038 -140.102515 -13.641627 -134.291467 159.220516 -48.028485 -170.415257 82.89785 64.955938 -94.644688 -75.776891 -69.800059 -48.398075 161.94965 51.794239 -136.414124 169.319662 -7.000857 -89.921973 -2.615642 -54.289353 -10.664994 -88.792192 -75.499035 -40.049684 168.570445 -29.199536 -103.755858 -0.541241 -1.589941 0.294737 166.072663 -3.430927 -143.087316 -0.004672 0.917534 -0.288227 -1.102966 -33.791982 4.185876 150.032855 28.966435 145.934982 160.097714 53.221689 145.707493 -0.0 0.0 -0.0 0.0 -2.27635 -180.0 -7.341072 -7.16136 -96.366291 -16.716972 -49.095755 -107.338119 -0.0 0.0 -0.0 0.0 -2.27635 -180.0 -5.682645 -8.645203 -99.559533 -144.56834 21.646458 63.283442
119.59600000000002 83.7859 -3.91048 -0.0 -0.0 -0.0 -0.0 0.0 -0.0 0.0 -0.0 0.0 -8.004821 8.256846 -69.161918 10.546126 4.563212 69.319265 0.0 -0.0 -0.0 0.0 -0.0 -0.0 -82.87739 68.300155 86.000637 -66.994676 86.425327 86.662909 0.920609 -31.30053 -34.487715 165.11282 -30.461349 141.158977 166.70788 -28.899146 85.827255 -168.91548 -5.753059 100.429455 -0.327682 0.529888 0.186114 1.193089 -1.752136 -0.341677 -153.32078 13.628946 138.862343 -169.865672 -35.220427 144.848115 -75.40572 72.953351 93.419967 -160.051931 2.030987 -173.539102 -161.704759 70.564335 -151.025746 -176.268934 70.940876 -137.857896 155.504155 -3.514523 -161.838528 152.239547 6.499873 -161.262392 -3.383139 0.252016 -0.732508 3.505364 11.17897 0.040683 0.491581 0.484673 -0.077556 -5.337816 -6.973742 3.950029 161.901733 -36.242925 -122.688421 146.72804 -10.092915 -117.068098 151.476684 17.84174 -137.538824 166.735514 -26.059232 -145.498103 72.350995 72.974965 -90.218005 129.743952 -61.265504 146.028016 133.876602 -15.638763 131.333304 157.731765 56.08303 149.235744 -180.0 75.749642 -0.0 -180.0 73.473292 -180.0 -3.818269 -2.872352 -145.985039 55.45762 -47.175368 -32.094048 -180.0 75.749642 -0.0 -180.0 73.473292 -180.0 3.818269 -2.872352 145.985039 -55.45762 -47.175368 32.094048
119.56 83.7669 -3.89332 -0.0 0.0 -0.0 0.0 0.0 0.0 0.0 0.0 -0.0 -8.144544 9.765136 -77.762661 11.253376 5.904095 77.877376 0.0 -0.0 -0.0 0.0 -0.0 -0.0 -85.537448 68.182427 88.688908 -64.077747 86.27016 83.901266 -3.901896 -43.54184 -37.10328 159.208928 -41.527018 137.276061 -168.698929 -6.378354 89.898494 -171.397594 -9.580307 88.852853 -46.208543 39.652969 36.318179 2.060675 -1.021208 -10.804734 23.903801 -61.333833 1.399383 -165.259247 -5.644365 140.502203 -145.118942 0.185466 -179.186604 -139.165864 -38.30219 -172.080115 12.252484 41.424931 10.280249 0.0863 0.727044 -1.821084 159.220516 -48.028485 -170.415257 -2.863803 15.761291 -22.442298 159.959683 -89.08752 -162.211914 -167.138841 -25.77973 -142.278565 178.927535 -16.453687 -89.421826 78.667024 9.664342 -24.955928 4.706866 7.223928 -2.854949 178.411012 -20.670638 -110.671782 36.036059 51.723116 -29.832321 40.069278 60.2871 -32.287882 132.481743 54.102976 -155.533585 -11.626865 -0.971053 15.827864 -12.252484 41.424931 -10.280249 -0.0863 0.727044 1.821084 -180.0 75.749642 -0.0 -180.0 73.473292 -180.0 4.312569 -4.794474 135.631106 -26.06127 -27.036264 50.375042 -180.0 75.749642 -0.0 -180.0 73.473292 -180.0 5.769294 -4.310256 124.873494 -53.284443 -74.625007 42.679987
